<?xml version="1.0" encoding="UTF-8" standalone="no"?>
<svg
   xmlns:dc="http://purl.org/dc/elements/1.1/"
   xmlns:cc="http://creativecommons.org/ns#"
   xmlns:rdf="http://www.w3.org/1999/02/22-rdf-syntax-ns#"
   xmlns:svg="http://www.w3.org/2000/svg"
   xmlns="http://www.w3.org/2000/svg"
   viewBox="0 0 80 80"
   height="80"
   width="80"
   xml:space="preserve"
   id="svg2"
   version="1.1"><metadata
     id="metadata8"><rdf:RDF><cc:Work
         rdf:about=""><dc:format>image/svg+xml</dc:format><dc:type
           rdf:resource="http://purl.org/dc/dcmitype/StillImage" /></cc:Work></rdf:RDF></metadata><defs
     id="defs6" /><g
     transform="matrix(1.3333333,0,0,-1.3333333,0,80)"
     id="g10"><g
       transform="scale(0.1)"
       id="g12"><path
         id="path14"
         style="fill:#ffffff;fill-opacity:1;fill-rule:nonzero;stroke:none"
         d="M 600,600 H 0 V 0 h 600 v 600" /><path
         id="path16"
         style="fill:none;stroke:#414042;stroke-width:10;stroke-linecap:round;stroke-linejoin:round;stroke-miterlimit:10;stroke-dasharray:none;stroke-opacity:1"
         d="m 285,315 c 0,-11.047 -8.953,-20 -20,-20 -11.047,0 -20,8.953 -20,20 0,11.047 8.953,20 20,20 11.047,0 20,-8.953 20,-20 z" /><path
         id="path18"
         style="fill:none;stroke:#414042;stroke-width:10;stroke-linecap:round;stroke-linejoin:round;stroke-miterlimit:10;stroke-dasharray:none;stroke-opacity:1"
         d="M 248.527,279.934 C 255.313,253.012 273.824,234.313 320,235 c 44.477,0.66 75,35.816 75,80 0,44.184 -44.437,80 -90,80 H 275 C 214.25,395 165,345.75 165,285 v -10 c 0,-53.922 38.797,-98.781 90,-108.187" /><path
         id="path20"
         style="fill:none;stroke:#414042;stroke-width:10;stroke-linecap:round;stroke-linejoin:round;stroke-miterlimit:10;stroke-dasharray:none;stroke-opacity:1"
         d="M 348.184,329.992 C 339.371,351.41 320.105,365.508 280,365 c -45.059,-0.57 -75,-35.816 -75,-80 0,-44.184 44.438,-80 90,-80 h 25 c 63.512,0 115,51.488 115,115 v 0 c 0,54.922 -38.5,100.852 -89.988,112.273" /><path
         id="path22"
         style="fill:none;stroke:#414042;stroke-width:10;stroke-linecap:round;stroke-linejoin:round;stroke-miterlimit:10;stroke-dasharray:none;stroke-opacity:1"
         d="m 315,285 c 0,11.047 8.953,20 20,20 11.047,0 20,-8.953 20,-20 0,-11.047 -8.953,-20 -20,-20 -11.047,0 -20,8.953 -20,20 z" /><path
         id="path24"
         style="fill:none;stroke:#414042;stroke-width:10;stroke-linecap:round;stroke-linejoin:round;stroke-miterlimit:10;stroke-dasharray:none;stroke-opacity:1"
         d="m 205,225 c 0,0 29.559,-42.832 115,-50" /><path
         id="path26"
         style="fill:none;stroke:#414042;stroke-width:10;stroke-linecap:round;stroke-linejoin:round;stroke-miterlimit:10;stroke-dasharray:none;stroke-opacity:1"
         d="m 185,295 c 0,0 -4.723,-31.176 10,-55" /><path
         id="path28"
         style="fill:none;stroke:#414042;stroke-width:10;stroke-linecap:round;stroke-linejoin:round;stroke-miterlimit:10;stroke-dasharray:none;stroke-opacity:1"
         d="m 395,375 c 0,0 -29.559,42.832 -115,50" /><path
         id="path30"
         style="fill:none;stroke:#414042;stroke-width:10;stroke-linecap:round;stroke-linejoin:round;stroke-miterlimit:10;stroke-dasharray:none;stroke-opacity:1"
         d="m 415,305 c 0,0 4.723,31.176 -10,55" /><path
         id="path32"
         style="fill:none;stroke:#414042;stroke-width:10;stroke-linecap:round;stroke-linejoin:round;stroke-miterlimit:10;stroke-dasharray:none;stroke-opacity:1"
         d="m 265,280 c 0,0 13.883,-22.559 40,-25" /><path
         id="path34"
         style="fill:none;stroke:#414042;stroke-width:10;stroke-linecap:round;stroke-linejoin:round;stroke-miterlimit:10;stroke-dasharray:none;stroke-opacity:1"
         d="m 335,325 c 0,0 -10.695,11.586 -25,15" /><path
         id="path36"
         style="fill:none;stroke:#414042;stroke-width:10;stroke-linecap:round;stroke-linejoin:round;stroke-miterlimit:10;stroke-dasharray:none;stroke-opacity:1"
         d="m 365,325 c 0,0 2.148,23.383 -35,50" /><path
         id="path38"
         style="fill:none;stroke:#414042;stroke-width:10;stroke-linecap:round;stroke-linejoin:round;stroke-miterlimit:10;stroke-dasharray:none;stroke-opacity:1"
         d="m 230,280 c 0,0 -0.789,-34.785 30,-50" /><path
         id="path40"
         style="fill:none;stroke:#414042;stroke-width:10;stroke-linecap:round;stroke-linejoin:round;stroke-miterlimit:10;stroke-dasharray:none;stroke-opacity:1"
         d="m 345,175 c 0,0 58.066,3.73 80,35" /><path
         id="path42"
         style="fill:none;stroke:#414042;stroke-width:10;stroke-linecap:round;stroke-linejoin:round;stroke-miterlimit:10;stroke-dasharray:none;stroke-opacity:1"
         d="m 255,425 c 0,0 -58.066,-3.73 -80,-35" /></g></g></svg>