<?xml version="1.0" encoding="UTF-8" standalone="no"?>
<!-- Created with Inkscape (http://www.inkscape.org/) -->

<svg
   version="1.1"
   id="svg1"
   width="80"
   height="80"
   viewBox="0 0 80 80"
   xmlns="http://www.w3.org/2000/svg"
   xmlns:svg="http://www.w3.org/2000/svg">
  <defs
     id="defs1" />
  <g
     id="g1">
    <g
       id="group-R5"
       transform="matrix(1.8868797,0,0,1.8868797,-35.475188,-35.475189)">
      <path
         id="path2"
         d="M 600,600 H 0 V 0 h 600 v 600"
         style="fill:#ffffff;fill-opacity:1;fill-rule:nonzero;stroke:none"
         transform="matrix(0.13333333,0,0,-0.13333333,0,80)" />
      <path
         id="path3"
         d="m 285,315 c 0,-11.047 -8.953,-20 -20,-20 -11.047,0 -20,8.953 -20,20 0,11.047 8.953,20 20,20 11.047,0 20,-8.953 20,-20 z"
         style="fill:none;stroke:#414042;stroke-width:10;stroke-linecap:round;stroke-linejoin:round;stroke-miterlimit:10;stroke-dasharray:none;stroke-opacity:1"
         transform="matrix(0.13333333,0,0,-0.13333333,0,80)" />
      <path
         id="path4"
         d="M 248.527,279.934 C 255.313,253.012 273.824,234.313 320,235 c 44.477,0.66 75,35.816 75,80 0,44.184 -44.437,80 -90,80 H 275 C 214.25,395 165,345.75 165,285 v -10 c 0,-53.922 38.797,-98.781 90,-108.187"
         style="fill:none;stroke:#414042;stroke-width:10;stroke-linecap:round;stroke-linejoin:round;stroke-miterlimit:10;stroke-dasharray:none;stroke-opacity:1"
         transform="matrix(0.13333333,0,0,-0.13333333,0,80)" />
      <path
         id="path5"
         d="M 348.184,329.992 C 339.371,351.41 320.105,365.508 280,365 c -45.059,-0.57 -75,-35.816 -75,-80 0,-44.184 44.438,-80 90,-80 h 25 c 63.512,0 115,51.488 115,115 v 0 c 0,54.922 -38.5,100.852 -89.988,112.273"
         style="fill:none;stroke:#414042;stroke-width:10;stroke-linecap:round;stroke-linejoin:round;stroke-miterlimit:10;stroke-dasharray:none;stroke-opacity:1"
         transform="matrix(0.13333333,0,0,-0.13333333,0,80)" />
      <path
         id="path6"
         d="m 315,285 c 0,11.047 8.953,20 20,20 11.047,0 20,-8.953 20,-20 0,-11.047 -8.953,-20 -20,-20 -11.047,0 -20,8.953 -20,20 z"
         style="fill:none;stroke:#414042;stroke-width:10;stroke-linecap:round;stroke-linejoin:round;stroke-miterlimit:10;stroke-dasharray:none;stroke-opacity:1"
         transform="matrix(0.13333333,0,0,-0.13333333,0,80)" />
      <path
         id="path7"
         d="m 205,225 c 0,0 29.559,-42.832 115,-50"
         style="fill:none;stroke:#414042;stroke-width:10;stroke-linecap:round;stroke-linejoin:round;stroke-miterlimit:10;stroke-dasharray:none;stroke-opacity:1"
         transform="matrix(0.13333333,0,0,-0.13333333,0,80)" />
      <path
         id="path8"
         d="m 185,295 c 0,0 -4.723,-31.176 10,-55"
         style="fill:none;stroke:#414042;stroke-width:10;stroke-linecap:round;stroke-linejoin:round;stroke-miterlimit:10;stroke-dasharray:none;stroke-opacity:1"
         transform="matrix(0.13333333,0,0,-0.13333333,0,80)" />
      <path
         id="path9"
         d="m 395,375 c 0,0 -29.559,42.832 -115,50"
         style="fill:none;stroke:#414042;stroke-width:10;stroke-linecap:round;stroke-linejoin:round;stroke-miterlimit:10;stroke-dasharray:none;stroke-opacity:1"
         transform="matrix(0.13333333,0,0,-0.13333333,0,80)" />
      <path
         id="path10"
         d="m 415,305 c 0,0 4.723,31.176 -10,55"
         style="fill:none;stroke:#414042;stroke-width:10;stroke-linecap:round;stroke-linejoin:round;stroke-miterlimit:10;stroke-dasharray:none;stroke-opacity:1"
         transform="matrix(0.13333333,0,0,-0.13333333,0,80)" />
      <path
         id="path11"
         d="m 265,280 c 0,0 13.883,-22.559 40,-25"
         style="fill:none;stroke:#414042;stroke-width:10;stroke-linecap:round;stroke-linejoin:round;stroke-miterlimit:10;stroke-dasharray:none;stroke-opacity:1"
         transform="matrix(0.13333333,0,0,-0.13333333,0,80)" />
      <path
         id="path12"
         d="m 335,325 c 0,0 -10.695,11.586 -25,15"
         style="fill:none;stroke:#414042;stroke-width:10;stroke-linecap:round;stroke-linejoin:round;stroke-miterlimit:10;stroke-dasharray:none;stroke-opacity:1"
         transform="matrix(0.13333333,0,0,-0.13333333,0,80)" />
      <path
         id="path13"
         d="m 365,325 c 0,0 2.148,23.383 -35,50"
         style="fill:none;stroke:#414042;stroke-width:10;stroke-linecap:round;stroke-linejoin:round;stroke-miterlimit:10;stroke-dasharray:none;stroke-opacity:1"
         transform="matrix(0.13333333,0,0,-0.13333333,0,80)" />
      <path
         id="path14"
         d="m 230,280 c 0,0 -0.789,-34.785 30,-50"
         style="fill:none;stroke:#414042;stroke-width:10;stroke-linecap:round;stroke-linejoin:round;stroke-miterlimit:10;stroke-dasharray:none;stroke-opacity:1"
         transform="matrix(0.13333333,0,0,-0.13333333,0,80)" />
      <path
         id="path15"
         d="m 345,175 c 0,0 58.066,3.73 80,35"
         style="fill:none;stroke:#414042;stroke-width:10;stroke-linecap:round;stroke-linejoin:round;stroke-miterlimit:10;stroke-dasharray:none;stroke-opacity:1"
         transform="matrix(0.13333333,0,0,-0.13333333,0,80)" />
      <path
         id="path16"
         d="m 255,425 c 0,0 -58.066,-3.73 -80,-35"
         style="fill:none;stroke:#414042;stroke-width:10;stroke-linecap:round;stroke-linejoin:round;stroke-miterlimit:10;stroke-dasharray:none;stroke-opacity:1"
         transform="matrix(0.13333333,0,0,-0.13333333,0,80)" />
    </g>
    <path
       style="fill:#414042;fill-opacity:1;stroke:none;stroke-width:0.239697"
       d="m 29.83042,39.572429 c -0.865685,-0.377069 -1.96524,-1.616239 -2.174713,-2.450847 -0.211751,-0.843683 0.06155,-2.250577 0.57484,-2.959108 0.241002,-0.332675 0.935141,-0.854282 1.54253,-1.159126 1.456087,-0.730799 2.573909,-0.536903 3.868954,0.671101 0.84046,0.783974 0.961044,1.037396 1.059704,2.227098 0.141604,1.707558 -0.51359,2.894712 -1.960183,3.551684 -1.155286,0.524674 -1.909345,0.555549 -2.911132,0.119198 z"
       id="path17" />
    <path
       style="fill:#414042;fill-opacity:1;stroke:none;stroke-width:0.239697"
       d="m 47.327095,47.110353 c -0.807037,-0.326847 -1.94857,-1.808029 -2.127179,-2.760096 -0.217587,-1.159839 0.621722,-2.90956 1.756261,-3.661308 2.091292,-1.385695 5.120054,0.123263 5.453527,2.716999 0.16018,1.245873 -0.69962,2.880179 -1.835827,3.489533 -0.858959,0.460665 -2.389736,0.561971 -3.246782,0.214872 z"
       id="path18" />
    <path
       style="fill:#414042;fill-opacity:1;stroke:none;stroke-width:0.0374382"
       d="m 30.63981,42.470422 c -1.526726,-0.136386 -3.020551,-0.875941 -4.056186,-2.008115 -0.787693,-0.861121 -1.34793,-1.986391 -1.561506,-3.136381 -0.105963,-0.570549 -0.09621,-1.767008 0.01877,-2.302452 0.546121,-2.543271 2.400024,-4.403574 4.930324,-4.947349 0.362002,-0.0778 0.50621,-0.08792 1.233565,-0.08657 0.887852,0.0016 1.198279,0.04497 1.900868,0.26532 0.368112,0.115451 1.063865,0.439579 1.40788,0.655886 0.999768,0.628625 1.883502,1.628223 2.364705,2.674737 0.919097,1.998836 0.743569,4.28772 -0.467621,6.097786 -1.085646,1.622448 -2.770831,2.617993 -4.719135,2.787892 -0.496134,0.04326 -0.559457,0.04322 -1.051661,-7.51e-4 z m 1.538358,-2.578245 c 1.532594,-0.420546 2.656889,-1.760747 2.780969,-3.315016 0.05484,-0.686943 -0.05405,-1.363006 -0.308089,-1.912842 -0.633974,-1.372154 -1.953572,-2.22256 -3.45073,-2.223801 -1.856152,-0.0015 -3.420342,1.311542 -3.740575,3.140074 -0.331797,1.894564 0.834161,3.754262 2.690428,4.291219 0.378125,0.109379 0.552228,0.126738 1.148198,0.114483 0.453994,-0.0093 0.64548,-0.02982 0.879799,-0.09412 z"
       id="path19" />
    <path
       style="fill:#414042;fill-opacity:1;stroke:none;stroke-width:0.0374382"
       d="m 30.63981,42.470422 c -2.156597,-0.192653 -4.094261,-1.520694 -5.047949,-3.459775 -0.2808,-0.570935 -0.4363,-1.020328 -0.554035,-1.601154 -0.07311,-0.360665 -0.085,-0.532402 -0.08359,-1.206714 0.0014,-0.671706 0.01398,-0.843452 0.08636,-1.179305 0.548854,-2.546981 2.375179,-4.381027 4.928726,-4.949565 0.326155,-0.07262 0.482894,-0.08336 1.216742,-0.08336 0.923174,-5e-6 1.225335,0.04307 1.965719,0.280237 0.522376,0.167332 1.323183,0.585169 1.778106,0.927762 0.698177,0.525783 1.376194,1.305728 1.778576,2.04595 0.568554,1.045915 0.845805,2.371452 0.732302,3.501135 -0.113812,1.132756 -0.434928,2.048133 -1.030958,2.938859 -1.086542,1.623764 -2.767522,2.616564 -4.718328,2.786681 -0.496134,0.04326 -0.559457,0.04322 -1.051661,-7.51e-4 z m 1.50092,-2.573231 c 1.152309,-0.324145 2.001081,-1.032707 2.491735,-2.080119 0.260145,-0.555339 0.316427,-0.844629 0.314063,-1.614293 -0.0019,-0.621811 -0.0099,-0.699927 -0.103627,-1.010833 -0.420675,-1.395686 -1.497958,-2.389469 -2.899953,-2.675178 -2.259006,-0.460356 -4.4064,1.200736 -4.526925,3.501751 -0.09793,1.869648 1.155769,3.514223 2.983828,3.914116 0.428159,0.09366 1.348534,0.07492 1.740879,-0.03544 z"
       id="path20" />
    <path
       style="fill:#414042;fill-opacity:1;stroke:none;stroke-width:0.0374382"
       d="m 30.659988,42.474481 c -1.296852,-0.125247 -2.501423,-0.62523 -3.479825,-1.444377 -1.10646,-0.926361 -1.832039,-2.145262 -2.13814,-3.591863 -0.11755,-0.55553 -0.127571,-1.742354 -0.0196,-2.321171 0.477192,-2.558128 2.440828,-4.536949 5.021763,-5.060601 0.525706,-0.106661 1.842916,-0.09589 2.377328,0.01944 1.223982,0.264141 2.293734,0.834814 3.156589,1.683922 1.544061,1.519461 2.187961,3.643122 1.747348,5.762967 -0.475798,2.289127 -2.274175,4.177845 -4.531646,4.759294 -0.710032,0.18288 -1.497311,0.253864 -2.133819,0.192392 z m 1.547534,-2.59953 c 1.324493,-0.391604 2.297441,-1.374724 2.654805,-2.682561 0.07581,-0.277448 0.08596,-0.397419 0.08374,-0.989611 -0.0023,-0.618199 -0.01071,-0.700615 -0.101582,-0.997301 -0.203076,-0.663041 -0.520894,-1.203811 -0.97322,-1.65594 -0.473064,-0.472859 -1.103155,-0.830117 -1.767977,-1.002432 -0.466449,-0.120899 -1.386358,-0.122367 -1.822322,-0.0029 -0.686366,0.188071 -1.234255,0.497945 -1.728429,0.97756 -0.505017,0.49014 -0.849045,1.083116 -1.02305,1.763355 -0.442769,1.730924 0.375702,3.525474 1.971844,4.323387 0.638684,0.31928 1.010129,0.397412 1.797035,0.377999 0.487865,-0.01203 0.632673,-0.0298 0.909153,-0.111547 z"
       id="path21" />
    <path
       style="fill:#414042;fill-opacity:1;stroke:none;stroke-width:0.0374382"
       d="m 30.615805,42.469473 c -0.472648,-0.04559 -1.013332,-0.16333 -1.453329,-0.316482 -2.116394,-0.736669 -3.640509,-2.476961 -4.123698,-4.708597 -0.07048,-0.3255 -0.08262,-0.499656 -0.08396,-1.204177 -0.0014,-0.726169 0.0088,-0.872153 0.0862,-1.233564 0.538866,-2.516934 2.39899,-4.381077 4.922814,-4.933451 0.332721,-0.07282 0.486738,-0.08295 1.240947,-0.08163 0.744562,0.0013 0.911204,0.0126 1.231513,0.08349 1.917493,0.424354 3.513804,1.652634 4.363245,3.357295 0.640272,1.284901 0.821134,2.690034 0.526559,4.090892 -0.389349,1.851554 -1.639334,3.463774 -3.35204,4.323432 -0.649671,0.326089 -1.484048,0.556689 -2.264044,0.625721 -0.482371,0.04269 -0.625253,0.04231 -1.094202,-0.0029 z m 1.509165,-2.573078 c 1.315418,-0.345323 2.317903,-1.321638 2.716259,-2.645346 0.09341,-0.310398 0.101592,-0.390034 0.103845,-1.010832 0.0022,-0.59344 -0.0077,-0.709125 -0.08251,-0.969053 -0.515737,-1.791774 -2.083829,-2.924418 -3.901135,-2.817818 -0.94072,0.05518 -1.758362,0.425964 -2.43796,1.105562 -0.515747,0.515747 -0.838968,1.088711 -1.016272,1.80151 -0.114608,0.460749 -0.113842,1.273623 0.0016,1.733652 0.368014,1.466081 1.523568,2.571883 2.98462,2.85612 0.375272,0.07301 1.259575,0.04385 1.631523,-0.0538 z"
       id="path22" />
    <path
       style="fill:#414042;fill-opacity:1;stroke:none;stroke-width:0.0374382"
       d="m 30.587043,42.469093 c -2.743326,-0.276554 -4.951636,-2.276384 -5.548518,-5.024699 -0.07151,-0.329274 -0.08264,-0.494009 -0.08264,-1.222896 5e-6,-0.732134 0.01086,-0.89135 0.08297,-1.216743 0.562279,-2.537314 2.381357,-4.362417 4.912681,-4.928955 0.34844,-0.07799 0.486062,-0.0877 1.234517,-0.08719 0.95683,6.63e-4 1.211796,0.03735 1.954343,0.281176 2.099193,0.689313 3.734967,2.506525 4.185694,4.649964 0.440487,2.094747 -0.201294,4.243486 -1.715985,5.745261 -1.062625,1.053564 -2.377504,1.665845 -3.881197,1.807302 -0.463882,0.04364 -0.683129,0.04302 -1.141866,-0.0032 z m 1.540449,-2.57493 c 1.326126,-0.340702 2.347442,-1.357789 2.73365,-2.722332 0.0718,-0.253685 0.08365,-0.387235 0.08434,-0.950333 6.97e-4,-0.570937 -0.01017,-0.693676 -0.08454,-0.954675 -0.434492,-1.524801 -1.665809,-2.597873 -3.202151,-2.790619 -1.931689,-0.242346 -3.722982,1.022435 -4.164409,2.940372 -0.100423,0.436322 -0.09289,1.234341 0.01582,1.676271 0.367881,1.495468 1.582188,2.623213 3.095559,2.874891 0.313023,0.05206 1.199569,0.0092 1.52173,-0.07357 z"
       id="path23" />
    <path
       style="fill:#414042;fill-opacity:1;stroke:none;stroke-width:0.0374382"
       d="m 30.571674,42.469944 c -2.744711,-0.289331 -4.938947,-2.282362 -5.532896,-5.02555 -0.112575,-0.519933 -0.122284,-1.844326 -0.01733,-2.364762 0.170212,-0.844078 0.584131,-1.812391 1.064232,-2.489643 0.323034,-0.455688 1.013183,-1.145837 1.46887,-1.468871 0.676076,-0.479267 1.528829,-0.850925 2.399834,-1.045927 0.34772,-0.07785 0.481315,-0.08697 1.250395,-0.08539 0.969968,0.002 1.282003,0.04879 2.008477,0.301234 0.978957,0.340175 1.777955,0.856956 2.525079,1.633189 1.956397,2.03262 2.283705,5.151308 0.795767,7.582311 -1.243392,2.031462 -3.616119,3.21074 -5.962423,2.963408 z m 1.069538,-2.505083 c 1.243496,-0.117921 2.354256,-0.903845 2.935967,-2.077361 0.306546,-0.618411 0.361952,-0.873435 0.361952,-1.666002 0,-0.752182 -0.05103,-1.012723 -0.304095,-1.552762 -0.203493,-0.434241 -0.385141,-0.69787 -0.727104,-1.055258 -0.503708,-0.526429 -1.086312,-0.870425 -1.766336,-1.042927 -1.74619,-0.442958 -3.523093,0.370816 -4.334196,1.984945 -1.020542,2.030922 0.03084,4.537172 2.205918,5.258416 0.550887,0.182671 0.926296,0.217481 1.627894,0.150949 z"
       id="path24" />
    <path
       style="fill:#414042;fill-opacity:1;stroke:none;stroke-width:0.0374382"
       d="m 30.571674,42.469944 c -2.739683,-0.2888 -4.942253,-2.2851 -5.530958,-5.012984 -0.07399,-0.342866 -0.08484,-0.500751 -0.08484,-1.235462 0,-0.725598 0.0113,-0.894255 0.08151,-1.216743 0.184829,-0.848977 0.574302,-1.74614 1.048288,-2.414766 0.319443,-0.450623 1.013288,-1.146392 1.449491,-1.453514 0.872063,-0.614 1.899972,-1.019342 2.871602,-1.132377 0.540826,-0.06292 1.588348,-0.02446 2.058123,0.07556 2.413811,0.513913 4.329982,2.415371 4.862445,4.825107 0.547651,2.478472 -0.514437,5.093866 -2.653092,6.533245 -1.185858,0.798117 -2.70227,1.179547 -4.10257,1.031936 z m 1.036228,-2.505475 c 1.322645,-0.125425 2.437011,-0.93092 3.025637,-2.187015 0.262166,-0.559449 0.305437,-0.809368 0.287688,-1.661605 -0.01437,-0.690234 -0.02197,-0.755607 -0.120429,-1.036217 -0.614848,-1.752377 -2.25146,-2.810142 -4.028337,-2.603569 -1.570719,0.182606 -2.841232,1.291423 -3.240628,2.828198 -0.08013,0.308333 -0.09785,0.463549 -0.100453,0.879799 -0.0017,0.277979 0.01792,0.606499 0.04369,0.730045 0.288388,1.382958 1.234155,2.464061 2.536086,2.898996 0.530888,0.177352 0.926879,0.214891 1.596749,0.151368 z"
       id="path25" />
    <path
       style="fill:#414042;fill-opacity:1;stroke:none;stroke-width:0.0374382"
       d="m 30.568907,39.790879 c -0.697253,-0.149389 -1.211994,-0.451381 -1.836357,-1.077365 -0.914512,-0.916888 -1.219964,-1.653023 -1.106033,-2.665521 0.0629,-0.558972 0.200727,-1.057011 0.414063,-1.496198 0.158759,-0.326831 0.222768,-0.41461 0.472191,-0.647544 0.555652,-0.518918 1.450728,-1.030927 2.11171,-1.207958 0.402729,-0.107864 0.987505,-0.1165 1.344759,-0.01986 0.515894,0.139551 1.067738,0.477855 1.638816,1.004661 0.848449,0.782675 1.012981,1.145633 1.082758,2.388568 0.04045,0.720472 -0.06477,1.297229 -0.338458,1.855331 -0.313961,0.640222 -0.793308,1.094544 -1.537738,1.457458 -0.882105,0.430031 -1.565114,0.55425 -2.245711,0.40843 z"
       id="path26" />
    <path
       style="fill:#414042;fill-opacity:1;stroke:none;stroke-width:0.0374382"
       d="m 30.587043,39.799877 c -0.373901,-0.07839 -0.835518,-0.271119 -1.153428,-0.481562 -0.621134,-0.411166 -1.399673,-1.317816 -1.6565,-1.929082 -0.301389,-0.717327 -0.191497,-1.900823 0.263465,-2.837438 0.158759,-0.326831 0.222768,-0.41461 0.472191,-0.647544 0.539263,-0.503612 1.441695,-1.025874 2.072702,-1.19953 1.039503,-0.286075 1.94691,-5.65e-4 2.986074,0.93955 0.871172,0.788134 1.048984,1.173443 1.119267,2.425389 0.05096,0.907725 -0.147832,1.668216 -0.602688,2.305639 -0.413675,0.579714 -1.189667,1.069646 -2.134588,1.347699 -0.412286,0.12132 -0.997494,0.154244 -1.366495,0.07688 z"
       id="path27" />
    <path
       style="fill:#414042;fill-opacity:1;stroke:none"
       id="path28"
       d="m 30.493877,31.623526 c 0.04131,0.222117 0.03733,0.448378 0.009,0.671566 -0.0073,0.05847 -0.02503,0.114053 -0.02842,0.172449 -6.79e-4,0.01153 -0.0028,0.02287 -0.0049,0.03418 0,0 3.36302,1.713544 3.36302,1.713544 v 0 c -0.0021,-0.01301 -0.0041,-0.02603 -0.0049,-0.0392 -0.0037,-0.06779 -0.0215,-0.133574 -0.02842,-0.201413 -0.02471,-0.219985 -0.03715,-0.444132 0.009,-0.662367 z" />
    <path
       style="fill:#414042;fill-opacity:1;stroke:none"
       id="path29"
       d="m 29.065035,31.115177 c -0.184824,0.08683 -0.364274,0.183146 -0.540646,0.285956 -0.153224,0.08864 -0.300282,0.186769 -0.451898,0.278118 -0.01595,-0.0239 -0.03792,0.04653 -0.05428,0.03306 -0.01033,-0.0085 0.03169,-0.07218 0.0023,-0.04543 -0.02306,0.02098 -0.06005,0.08199 -0.07885,0.111541 -0.0815,0.145809 -0.19736,0.265222 -0.312879,0.384047 -0.110159,0.101311 -0.206878,0.217315 -0.332418,0.300282 -0.08615,0.04115 -0.106149,0.145106 -0.136619,0.228457 -0.07389,0.195695 -0.159485,0.387737 -0.278846,0.560111 -0.05608,0.08665 -0.11691,0.170676 -0.186845,0.246736 -0.01749,0.0271 -0.06192,0.09563 -0.05283,0.135348 0.0013,0.0058 0.01029,0.0061 0.01544,0.0092 1.42e-4,0.01412 2.83e-4,0.02823 4.25e-4,0.04234 -0.03915,0.271291 -0.113425,0.536483 -0.189502,0.799404 -0.08016,0.180366 -0.132686,0.363557 -0.156804,0.559045 -0.02117,0.193204 -0.06208,0.383243 -0.121136,0.568285 -0.04079,0.09715 -0.04465,0.201777 -0.04574,0.305498 -9.86e-4,0.129703 6.2e-4,0.257981 0.01393,0.386908 0.01925,0.12854 0.04438,0.252175 0.08855,0.37496 0.04725,0.138974 0.08198,0.28213 0.130199,0.420781 0.03047,0.09602 0.05597,0.198094 0.10718,0.286089 0.02136,0.03671 0.04854,0.06978 0.07051,0.106138 0.07955,0.120138 0.169777,0.229564 0.229332,0.361884 0.05706,0.07103 0.100568,0.158552 0.166085,0.223096 0.09581,0.09439 -7.04e-4,-0.02974 0.08362,0.08786 0.09057,0.09967 0.184425,0.192572 0.296435,0.268034 0.03071,0.04291 0.09327,0.04952 0.130857,0.07881 0.01455,0.01134 0.02043,0.03114 0.03392,0.04372 0.07855,0.07321 0.0015,-0.03702 0.0676,0.07125 0.03572,0.05928 0.102552,0.09226 0.144365,0.145214 0.01104,0.01398 0.01448,0.03376 0.02767,0.04573 0.01,0.009 0.02527,0.0092 0.0379,0.01376 0.05679,0.07731 0.135899,0.125517 0.217269,0.17359 1.079347,0.621633 2.158694,1.243266 3.238041,1.864899 0.01951,3.95e-4 0.03959,-0.0035 0.05853,0.0012 0.03295,0.0081 0.05772,0.03699 0.08986,0.04792 0.03192,0.01085 0.0662,0.01288 0.099,0.02065 0.08355,0.0055 0.165895,-0.008 0.249157,-0.011 0.0032,0.01258 -4.29e-4,0.02942 0.0095,0.03775 0.02496,0.0209 0.06608,-5.76e-4 0.09726,0.0088 0.01756,0.0053 0.0302,0.02177 0.0476,0.02754 0.01447,0.0048 0.135745,0.01996 0.146746,0.0214 0.02889,0.0012 0.05817,-0.0013 0.08667,0.0035 0.05561,0.0095 0.108045,0.03306 0.163301,0.04442 0.09407,0.01934 0.14072,0.01042 0.225683,0.05956 0.08636,0.04406 0.1802,0.05754 0.274323,0.07473 0.0069,0.0011 0.01547,0.0077 0.02084,0.0032 0.07983,-0.0673 0.132035,-0.166392 0.216129,-0.228988 0.03687,-0.05455 0.110761,-0.07151 0.154803,-0.116055 0.01441,-0.01458 0.0555,-0.07436 0.0699,-0.09489 0.0071,-0.01088 0.009,-0.02842 0.02122,-0.03263 0.08627,-0.0296 -0.05817,0.04875 -0.01158,0.04406 0.01733,-0.0017 0.06246,-0.06467 0.07645,-0.07702 0.06478,-0.06778 0.154363,-0.103278 0.228958,-0.158021 0.0094,-0.0069 0.09677,-0.08483 0.111071,-0.09754 0.10402,-0.06122 0.152217,-0.185465 0.216375,-0.282794 0.07317,-0.11905 0.178328,-0.211684 0.267566,-0.318107 0.06083,-0.06106 0.09758,-0.137855 0.142631,-0.210047 0.08997,-0.153022 0.191561,-0.300839 0.302849,-0.43925 0.05017,-0.06642 0.129313,-0.111965 0.151718,-0.195684 0.0559,-0.125452 0.117596,-0.249238 0.185016,-0.369118 0.07304,-0.127706 0.144117,-0.256484 0.226271,-0.378634 0.02668,-0.04345 0.06102,-0.09853 0.06417,-0.151606 4.97e-4,-0.0084 -0.0067,-0.01578 -0.0071,-0.02416 -0.0011,-0.02059 0.0016,-0.0412 0.0024,-0.0618 0.02916,-0.256327 0.08313,-0.507873 0.146244,-0.757621 0.04708,-0.155536 0.09627,-0.311196 0.157867,-0.46176 0.03522,-0.06129 0.03213,-0.118809 0.02281,-0.186735 -0.03987,-0.226444 -0.03582,-0.456607 -0.03344,-0.685497 0.0054,-0.182732 -0.02644,-0.360552 -0.05782,-0.539268 -0.04376,-0.139212 -0.08587,-0.27866 -0.118764,-0.42092 -0.05521,-0.141988 -0.08099,-0.294105 -0.137686,-0.435112 -0.01826,-0.04515 -0.04662,-0.093 -0.05149,-0.142826 -0.002,-0.02067 0.0034,-0.04177 2.5e-4,-0.06229 -0.0035,-0.02251 -0.0183,-0.04172 -0.02726,-0.06266 -0.0029,-0.0073 -0.0059,-0.0145 -0.0088,-0.02175 0.0018,-0.02217 0.01073,-0.04494 0.0053,-0.06652 -0.002,-0.008 -0.0168,-0.0025 -0.0237,-0.0069 -0.0526,-0.03425 -0.02093,-0.06352 -0.08902,-0.09638 -0.14328,-0.118259 0.07323,0.06681 -0.07592,-0.08558 -0.01195,-0.01221 -0.03065,-0.01609 -0.04296,-0.02793 -0.01413,-0.0136 -0.02079,-0.03381 -0.03512,-0.0472 -0.02106,-0.01969 -0.04908,-0.03055 -0.07144,-0.04875 -0.01224,-0.01003 -0.03545,-0.0994 -0.05779,-0.102028 -0.0058,-6.81e-4 -0.05184,0.02337 -0.06672,0.02511 0.178331,-1.285017 -3.000132,-2.040578 -3.23689,-1.964114 -1.171383,0.378313 4.057724,1.079849 3.15591,1.917697 -0.04218,0.03976 0.01527,-0.01099 0.02278,-0.0971 8.63e-4,-0.0099 -0.01612,0.01268 -0.02578,0.01503 -0.01153,0.0028 -0.02653,-0.01348 -0.03375,-0.02026 -0.01941,-0.02414 -0.02431,0.04923 -0.05082,0.0258 0,0 -3.377523,-1.665598 -3.377523,-1.665598 v 0 c -0.0034,0.04337 -0.02869,0.09147 -0.02206,0.129858 0.0083,0.01748 0.02066,0.03854 0.0215,0.05829 5.96e-4,0.01398 -0.01327,0.05188 -0.0035,0.04184 0.04875,-0.05018 0.06044,-0.141516 0.047,-0.06123 -0.0011,0.0081 -0.01307,0.09214 -0.01276,0.09233 1.065523,0.648305 2.889291,0.700719 3.221795,1.902833 0.328646,1.18817 -2.141926,-1.221253 -3.205628,-1.844385 -0.02467,-0.01445 0.13149,-0.03486 0.06207,-0.05921 0.01595,0.136492 -0.0238,0.127471 0.11857,0.157883 0.02158,0.03031 0.03525,0.06705 0.06224,0.09265 0.01242,0.01179 0.03305,0.01194 0.04568,0.02351 0.01471,0.01347 0.01879,0.03625 0.03384,0.04935 0.112164,0.09759 -0.01612,-0.06617 0.07518,0.06095 0.05391,0.09821 -0.01075,0.01018 0.06221,0.04507 0.01941,0.0093 0.0078,0.05842 0.02933,0.05748 0.07221,-0.0032 0.01563,-0.06674 0.05483,-0.01216 0.01268,0.01858 0.01849,0.04404 0.03746,0.05615 0.01,0.0064 0.02704,-0.0033 0.03519,0.0053 0.03104,0.03278 0.034,0.144664 0.05786,0.183106 0.10112,0.241096 -0.04465,-0.09658 0.06199,0.120732 0.04553,0.09279 0.05731,0.197096 0.09465,0.292674 0.06,0.132032 0.0657,0.278395 0.116945,0.413633 0.07379,0.148071 0.103294,0.319082 0.133085,0.480504 0.03294,0.209556 0.01884,0.424531 -0.01593,0.633364 -0.0082,0.0483 -0.0056,0.0741 0.0031,0.120019 0.0015,0.164338 -0.02742,0.327095 -0.06429,0.486772 -0.06141,0.239515 -0.104676,0.484783 -0.198641,0.714846 -0.0086,0.01646 -0.05326,0.09953 -0.06074,0.122682 -0.0018,0.0056 0.03726,0.05014 0.0071,0.05328 -0.03594,0.133015 -0.09893,0.252709 -0.167884,0.371508 -0.07619,0.125413 -0.149991,0.250571 -0.248606,0.360128 -0.02111,0.03336 -0.04175,0.106641 -0.08455,0.174825 -0.0879,0.149331 -0.189545,0.290529 -0.304049,0.420684 -0.05898,0.06609 -0.132477,0.12183 -0.161503,0.208431 -0.06664,0.116775 -0.168342,0.209292 -0.239344,0.323514 -0.06525,0.07606 -0.131712,0.149533 -0.205722,0.216836 -0.08809,0.09089 -0.20918,0.144651 -0.311789,0.216681 -0.0777,0.04929 -0.143161,0.07527 -0.17976,0.166165 -0.03083,0.02756 -0.09263,0.08836 -0.142539,0.115192 -0.01265,0.0098 -0.06833,0.05488 -0.09604,0.04089 -0.02238,-0.0113 0.08074,-0.101798 0.02433,-0.0947 -0.07663,-0.02051 -0.148264,-0.05475 -0.228124,-0.06325 -0.106089,-0.0018 -0.202354,-0.03531 -0.306547,-0.05272 -0.03054,-0.0051 -0.0618,-0.0058 -0.09211,-0.01213 -0.0275,-0.0058 -0.05385,-0.0161 -0.08077,-0.02414 -0.04839,-0.01533 -0.09488,-0.03727 -0.144431,-0.04829 -0.02344,-0.0052 -0.04818,-0.002 -0.07174,-0.0067 -8.12e-4,-1.61e-4 -0.09965,-0.0344 -0.103456,-0.03421 -0.02047,10e-4 -0.03845,0.01424 -0.05767,0.02136 -0.06317,-0.0081 -0.122714,-0.0324 -0.174221,-0.06983 -0.04834,-0.02332 -0.02364,-0.0098 -0.07361,-0.04155 -0.03203,-0.01563 -0.07049,-0.01639 -0.101236,-0.03442 -0.01381,-0.0081 -0.02241,-0.02287 -0.03361,-0.03431 1.050775,0.606806 2.101549,1.213612 3.152324,1.820418 -0.02775,-0.01825 -0.05156,-0.04337 -0.08204,-0.05658 -0.01337,-0.0058 -0.03004,-7.8e-4 -0.04315,-0.0072 -0.03529,-0.01716 -0.06039,-0.05771 -0.107302,-0.05689 -0.05869,-0.08853 0.0085,-0.0099 -0.07368,-0.04948 -0.05775,-0.02779 -0.09211,-0.103605 -0.15377,-0.128217 -0.08811,-0.04978 0.0048,0.01252 -0.06868,-0.0768 -0.01082,-0.01315 -0.03084,-0.01669 -0.0412,-0.03021 -0.01371,-0.01789 -0.01615,-0.04253 -0.02881,-0.06118 -0.01606,-0.02366 -0.06494,-0.06064 -0.08623,-0.07794 -0.09887,-0.08492 -0.216334,-0.135873 -0.312057,-0.223666 -0.108572,-0.07315 0.01063,0.01623 -0.08722,-0.09131 -0.09148,-0.100539 -0.0061,0.02373 -0.09987,-0.07261 -0.01677,-0.01722 -0.02459,-0.04174 -0.0409,-0.05938 -0.01459,-0.01578 -0.03384,-0.0265 -0.05075,-0.03975 -0.116695,-0.08956 -0.132856,-0.236208 -0.235064,-0.340255 -0.02529,-0.0349 -0.04323,-0.07478 -0.06869,-0.109561 -0.04871,-0.06655 -0.121715,-0.118112 -0.153097,-0.198026 -0.0457,-0.138273 -0.102076,-0.273283 -0.136239,-0.414955 -0.03057,-0.112255 -0.08291,-0.213922 -0.09135,-0.330324 -0.01071,-0.03587 -0.0412,-0.114828 -0.04674,-0.147603 -0.0092,-0.05423 0.0086,-0.113008 0.0024,-0.167617 0.0017,-0.08643 9.11e-4,-0.172825 0.0023,-0.259252 0.01086,-0.197938 0.05318,-0.389138 0.09777,-0.58175 0.04267,-0.185252 0.05879,-0.37631 0.111412,-0.559888 0.04679,-0.254176 0.113585,-0.508782 0.243694,-0.734268 0.02215,-0.04077 0.08336,-0.164453 0.05462,-0.128032 -0.0079,0.01 -0.01234,0.02242 -0.02078,0.0319 -0.0025,0.0028 0.0014,-0.0072 0.0021,-0.01087 0.02452,-0.09682 0.0669,-0.188326 0.112368,-0.276831 0.0982,-0.189682 0.191025,-0.383045 0.31569,-0.557528 0.100615,-0.132255 0.03357,-0.02821 0.09674,-0.116893 0.08875,-0.11912 0.178217,-0.238796 0.284515,-0.343038 0.121069,-0.123858 0.242796,-0.247654 0.38357,-0.34958 0.01746,0.01962 0.0085,0.0047 -0.01405,0.05042 0.0075,0.01159 0.0207,-0.01833 0.03025,-0.0283 0.0246,-0.02569 0.04593,-0.05297 0.06876,-0.07994 0.102437,-0.107879 0.227189,-0.191527 0.359645,-0.258414 0.153713,-0.07034 0.329223,-0.157455 0.499889,-0.09794 z" />
    <path
       style="fill:#414042;fill-opacity:1;stroke:none"
       id="path30"
       d="m 34.904844,35.646879 c -0.04183,-0.175066 0.0046,-0.345147 0.0502,-0.514412 0.07401,-0.216698 0.172234,-0.424882 0.263701,-0.634838 0.05946,-0.121874 0.138099,-0.232578 0.208757,-0.348215 0.127453,-0.200007 -0.150125,0.246491 0.0145,0.0098 4.52e-4,0.0027 -4.34e-4,0.01031 0.0014,0.0082 0.03463,-0.04094 0.06291,-0.08905 0.09667,-0.131211 0,0 -3.240727,-1.90956 -3.240727,-1.90956 v 0 c -0.03995,0.07603 0.0042,-0.04182 -0.05381,0.04252 0.0096,-0.01799 0.04797,-0.04686 0.02885,-0.05396 -0.02014,-0.0075 -0.0292,0.03168 -0.04157,0.04924 -0.02574,0.03653 -0.04987,0.07423 -0.07254,0.112735 -0.0021,0.0035 0.0088,0.04375 -3.37e-4,0.04316 -0.0258,0.134679 -0.09273,0.257317 -0.146019,0.382378 -0.08783,0.22245 -0.175706,0.44468 -0.272229,0.663585 -0.07043,0.189352 -0.128088,0.384408 -0.171132,0.581636 z" />
    <path
       style="fill:#414042;fill-opacity:1;stroke:none"
       id="path31"
       d="m 47.227248,38.445974 c -0.248414,0.255716 -0.549331,0.454249 -0.838939,0.65986 -0.293035,0.218757 -0.597184,0.421534 -0.89277,0.63687 -0.208877,0.117948 -0.392576,0.275728 -0.570444,0.435483 -0.115722,0.09662 -0.22804,0.198206 -0.332818,0.306688 -0.114375,0.145524 -0.203077,0.311692 -0.282395,0.478622 -0.09527,0.26562 -0.193516,0.529443 -0.309608,0.786824 -0.08615,0.17944 -0.18087,0.35428 -0.262211,0.535982 -0.063,0.136627 -0.122377,0.273547 -0.161691,0.418991 -0.02715,0.112584 -0.03552,0.228235 -0.05364,0.342293 -0.0058,0.0824 -0.01531,0.162704 0.0052,0.243712 0.05493,0.162411 0.0959,0.328313 0.136445,0.495167 0.03822,0.142355 0.105476,0.275289 0.139189,0.418486 0.0034,0.09057 0.03987,0.170569 0.06424,0.254942 0.01573,0.02515 -0.0094,0.07348 -0.0047,0.09002 0.0029,0.01016 0.02383,-0.0016 0.0311,0.006 0.01533,0.01615 0.05178,0.119697 0.05629,0.131598 0.08677,0.155246 0.146033,0.324345 0.207385,0.491108 0.05076,0.130341 0.07017,0.271297 0.129714,0.397579 0.0087,0.07669 0.05041,0.142457 0.07355,0.215365 0.01528,0.05321 -0.02256,-0.08536 -0.0245,0.110311 -1.04e-4,0.01051 0.01615,-0.01644 0.02666,-0.01686 0.01051,-4.2e-4 0.02144,0.0064 0.02792,0.01468 0.05477,0.06996 -0.01604,0.0364 0.05992,0.06117 0.08083,0.04675 0.09367,0.0966 0.134865,0.171125 0,0 3.487636,1.37132 3.487636,1.37132 v 0 c -0.02534,-0.003 -0.0534,0.0064 -0.07641,-0.0046 -0.03861,-0.01849 -0.06046,-0.08331 -0.08883,-0.112236 -0.05123,-0.111235 0.01443,-0.0055 -0.05545,-0.04083 -0.02059,-0.01042 0.0071,-0.08374 -0.01017,-0.06847 -0.06974,0.06156 -0.03001,0.116786 -0.05818,0.07148 -0.04019,-0.0664 -0.0676,-0.144748 -0.12444,-0.196973 -0.01388,-0.05118 -0.01641,-0.07416 -0.04308,-0.120154 -0.01008,-0.01739 -0.0273,-0.03045 -0.03533,-0.04887 -0.03217,-0.07375 -0.03271,-0.16336 -0.08146,-0.231525 -0.05119,-0.176066 -0.127397,-0.342956 -0.172442,-0.520036 -0.01922,-0.03363 -0.03651,-0.05317 -0.03753,-0.09312 -4.92e-4,-0.01929 0.02072,-0.04309 0.0077,-0.05738 -0.01,-0.01099 -0.01623,0.02713 -0.02983,0.03307 -0.01334,0.0058 0.007,-0.05519 -0.01064,-0.04235 -0.02766,-0.09974 -0.05213,-0.170271 -0.108984,-0.259868 -0.03789,-0.156228 -0.07016,-0.309649 -0.134609,-0.45775 -0.07158,-0.146709 -0.0895,-0.286026 -0.12542,-0.441473 -0.0026,-0.01437 -0.0053,-0.02874 -0.0079,-0.04311 -0.0059,-0.0012 -0.01463,0.0015 -0.01772,-0.0037 -0.01571,-0.02632 0.0062,-0.08372 -0.0069,-0.112283 -0.01205,-0.09669 -0.01366,-0.194735 -0.0046,-0.291789 0.01696,-0.129303 0.06774,-0.244171 0.116241,-0.364267 0.0745,-0.18781 0.133917,-0.381755 0.211781,-0.568536 0.09257,-0.253447 0.203531,-0.50133 0.32974,-0.739807 0.07157,-0.129487 0.146226,-0.257412 0.250699,-0.363933 0.102325,-0.09987 0.197661,-0.206572 0.29629,-0.310072 0.164213,-0.155257 0.336816,-0.299723 0.516376,-0.436959 0.266863,-0.230377 0.552024,-0.438236 0.830136,-0.65467 0.300091,-0.213706 0.604912,-0.438141 0.961213,-0.547696 z" />
    <path
       style="fill:#414042;fill-opacity:1;stroke:none"
       id="path32"
       d="m 51.364438,40.736621 c 0.871123,0.872607 0.01636,0.0092 -3.004517,-1.722262 -0.04577,-0.02623 0.08637,0.06061 0.128909,0.09182 0.133069,0.09763 0.254238,0.204403 0.375204,0.316418 0.22397,0.238809 0.44447,0.479735 0.674728,0.712576 0.221293,0.201192 0.427,0.417643 0.635813,0.631124 0.05117,0.03972 0.07721,0.111398 0.129371,0.147825 0.05663,-0.09205 0.05666,-0.05692 0.06709,0.01607 0.01309,0.09151 0.01,0.07344 0.01781,0.173396 0.0031,0.199862 0.01034,0.400312 -0.0046,0.59983 -0.0047,0.100171 -0.0081,0.200329 -0.02787,0.298879 -0.0077,0.02657 -0.0063,0.05509 -0.0028,0.08248 0.06346,0.244608 0.03763,0.495454 0.01469,0.74369 -0.03498,0.320007 -0.107555,0.63341 -0.177942,0.946923 -0.03938,0.163041 -0.05467,0.330173 -0.08206,0.495286 -0.02329,0.137025 -0.06662,0.269552 -0.108062,0.401886 -0.03219,0.140595 -0.07659,0.278813 -0.14083,0.408086 -0.06427,0.129899 -0.145558,0.250814 -0.237096,0.362926 -0.114707,0.128322 -0.243588,0.247023 -0.388426,0.340372 -0.142476,0.101045 -0.303432,0.168274 -0.455201,0.252487 -0.06846,0.04197 -0.13677,0.08932 -0.208491,0.125695 -0.06345,0.03218 -0.140224,0.04381 -0.206839,0.06885 -0.166293,0.03771 -0.32806,0.08808 -0.498384,0.106432 -0.138956,-0.0072 -0.265675,0.04835 -0.402444,0.06374 -0.09896,0.05779 -0.209945,0.06874 -0.322133,0.06684 -0.116014,0.05212 -0.242805,0.06126 -0.368225,0.06281 -0.0447,-0.01065 -0.214663,0.0099 -0.246585,-0.006 -0.01312,-0.0065 -0.0172,-0.02372 -0.0258,-0.03558 -0.0376,-0.04305 -0.11594,-0.08218 -0.171745,-0.06204 -0.0039,-0.05106 -0.01967,-0.05066 -0.06433,-0.05499 -0.04208,-0.0041 -0.05973,-0.01386 -0.102487,-0.0047 -0.18059,0.03046 0.03255,-0.06632 -0.133575,-0.05147 -0.01636,0.0015 -0.03312,0.0085 -0.04907,0.0045 -0.02987,-0.0074 -0.0497,-0.03798 -0.07872,-0.04817 -0.04197,-0.01474 -0.09151,-0.02021 -0.134945,-0.03173 -1.235794,-0.323834 -0.76177,-0.480019 3.169629,1.823218 0.01281,0.0075 -0.01812,0.02355 -0.02777,0.03484 -0.0056,0.0066 -0.01792,0.02745 -0.01803,0.01877 -3.55e-4,-0.02632 0.0115,-0.05138 0.01725,-0.07707 0,0 -3.482415,-1.431021 -3.482415,-1.431021 v 0 c 0.01297,-0.01886 0.0179,-0.04751 0.03891,-0.05659 0.03198,-0.01382 -0.0472,0.08532 -0.01723,0.103076 2.361618,1.399356 2.061742,1.517654 3.286676,1.869904 0.03761,0.0119 0.07262,0.03076 0.109633,0.04296 0.03515,0.01159 0.07409,0.01257 0.110344,0.01575 0.01367,0.0041 0.02373,0.0159 0.0356,0.02386 0.104191,0.09667 0.07057,-0.03455 0.160172,0.02957 0.04435,0.05012 0.108199,0.08425 0.174573,0.0606 0.0228,0.04699 0.119314,0.04511 0.163186,0.03671 0.104849,-0.03536 0.217719,-0.02409 0.325904,-0.04917 0.121419,-0.02559 0.242779,-0.06731 0.36733,-0.06697 0.11435,-0.02579 0.223882,-0.07656 0.340083,-0.08735 0.127093,-0.03562 0.255303,-0.04463 0.382957,-0.07729 0.175752,-0.04977 0.35303,-0.09552 0.524331,-0.158858 0.161776,-0.05811 0.303866,-0.151798 0.451643,-0.237989 0.16438,-0.09005 0.320224,-0.195081 0.473595,-0.302595 0.153592,-0.13082 0.314265,-0.255332 0.444083,-0.411079 0.107287,-0.131833 0.206292,-0.272878 0.279321,-0.426906 0.07942,-0.149756 0.131352,-0.309314 0.185915,-0.469308 0.03632,-0.149516 0.08835,-0.294461 0.120708,-0.445216 0.01171,-0.08087 0.03439,-0.162494 0.04188,-0.243692 0.0084,-0.0906 -0.0073,-0.183696 0.0058,-0.27427 0.02205,-0.328839 0.07007,-0.655489 0.112085,-0.982167 0.04648,-0.238882 0.0975,-0.475669 0.164871,-0.709575 0.0041,-0.02837 0.0038,-0.05751 -0.0029,-0.08537 -0.01809,-0.107997 -0.02355,-0.217025 -0.0275,-0.326343 -0.01325,-0.199467 -0.0069,-0.399659 1.69e-4,-0.599291 0.01281,-0.122301 0.03207,-0.24229 0.0803,-0.356353 -0.0378,-0.09616 -0.133234,-0.161454 -0.192097,-0.242919 -0.191405,-0.210225 0.03896,0.03649 -0.186008,-0.182533 -0.166741,-0.16234 -0.328638,-0.330147 -0.50168,-0.486283 -0.235294,-0.223029 -0.460567,-0.456532 -0.672675,-0.702065 -0.977703,-1.115476 -2.462593,-1.912989 -3.77847,-2.386424 z" />
    <path
       style="fill:#414042;fill-opacity:1;stroke:none"
       id="path33"
       d="m 48.762018,48.614771 c -0.01324,-0.207548 0.04509,-0.413714 0.125674,-0.603282 0.06784,-0.114483 0.137986,-0.227295 0.206829,-0.341012 0.02303,-0.0068 0.146154,-0.278252 0.08816,-0.156156 -0.03511,0.128082 0.08217,-0.136341 0.0848,-0.142705 0.06634,-0.114257 0.137497,-0.226424 0.209355,-0.337462 0.0086,-0.0092 0.01726,-0.01833 0.02589,-0.02749 0,0 -3.209572,-1.891207 -3.209572,-1.891207 v 0 c -0.01264,0.02112 -0.02529,0.04225 -0.03793,0.06338 -0.05654,0.120561 -0.142099,0.221812 -0.223176,0.326507 -0.01746,0.02449 -0.02047,0.03393 -0.03723,0.04906 -0.0057,0.0052 -0.01775,0.02287 -0.01741,0.01518 5.78e-4,-0.01305 0.03111,-0.03225 0.01827,-0.03466 -0.0325,-0.0061 -0.02393,0.09634 -0.05756,0.0808 -0.01339,0.02374 -0.02905,0.04633 -0.04018,0.07121 -0.01514,0.03383 0.0098,0.09703 -0.03117,0.125397 -0.06757,0.132176 -0.136243,0.264559 -0.191613,0.402226 -0.08661,0.218778 -0.120936,0.451745 -0.205853,0.670589 z" />
  </g>
</svg>
